<?xml version="1.0" encoding="utf-8"?>
<!-- Generator: Adobe Illustrator 25.4.1, SVG Export Plug-In . SVG Version: 6.00 Build 0)  -->
<svg version="1.1" id="MAIN_GRAPHICS" xmlns="http://www.w3.org/2000/svg" xmlns:xlink="http://www.w3.org/1999/xlink" x="0px"
	 y="0px" width="820px" height="535.63px" viewBox="0 0 820 535.63" style="enable-background:new 0 0 820 535.63;"
	 xml:space="preserve">
<style type="text/css">
	.st0{fill:#333333;}
	.st1{fill:#FFFFFF;}
	.st2{fill:url(#SVGID_1_);}
	.st3{fill:url(#SVGID_00000039131912609537409090000018212159252740260028_);}
	.st4{fill:url(#SVGID_00000175317029290955211870000011946839233481263763_);}
	.st5{fill:url(#SVGID_00000074435881132632389340000000697034236882562456_);}
	.st6{fill:url(#SVGID_00000077297053125334687700000011453397290951029143_);}
	.st7{fill:url(#SVGID_00000150782321760274838070000009327732284829060260_);}
	.st8{fill:#00A9D7;}
</style>
<g>
	<circle class="st0" cx="411.499" cy="259.161" r="136.118"/>
	<circle class="st0" cx="411.499" cy="259.161" r="136.118"/>
</g>
<g>
	<circle class="st1" cx="411.499" cy="83.203" r="69.921"/>
	<linearGradient id="SVGID_1_" gradientUnits="userSpaceOnUse" x1="338.5781" y1="83.2031" x2="484.4199" y2="83.2031">
		<stop  offset="0" style="stop-color:#00B4E5"/>
		<stop  offset="1" style="stop-color:#1CD0BB"/>
	</linearGradient>
	<path class="st2" d="M411.499,156.124c-40.208,0-72.921-32.712-72.921-72.921s32.712-72.921,72.921-72.921
		c40.209,0,72.921,32.712,72.921,72.921S451.708,156.124,411.499,156.124z M411.499,16.282c-36.9,0-66.921,30.021-66.921,66.921
		s30.021,66.921,66.921,66.921s66.921-30.021,66.921-66.921S448.399,16.282,411.499,16.282z"/>
</g>
<g>
	<circle class="st1" cx="253.408" cy="179.332" r="69.921"/>
	
		<linearGradient id="SVGID_00000169539303812588332030000001266931934653980038_" gradientUnits="userSpaceOnUse" x1="180.4873" y1="179.3315" x2="326.3291" y2="179.3315">
		<stop  offset="0" style="stop-color:#00B4E5"/>
		<stop  offset="1" style="stop-color:#1CD0BB"/>
	</linearGradient>
	<path style="fill:url(#SVGID_00000169539303812588332030000001266931934653980038_);" d="M253.408,252.252
		c-40.208,0-72.921-32.712-72.921-72.921s32.712-72.921,72.921-72.921s72.921,32.712,72.921,72.921S293.617,252.252,253.408,252.252
		z M253.408,112.411c-36.9,0-66.921,30.021-66.921,66.921s30.021,66.921,66.921,66.921s66.921-30.021,66.921-66.921
		S290.309,112.411,253.408,112.411z"/>
</g>
<g>
	<circle class="st1" cx="568.855" cy="179.332" r="69.921"/>
	
		<linearGradient id="SVGID_00000176031856418519118720000012434434283458322874_" gradientUnits="userSpaceOnUse" x1="495.9336" y1="179.3315" x2="641.7764" y2="179.3315">
		<stop  offset="0" style="stop-color:#00B4E5"/>
		<stop  offset="1" style="stop-color:#1CD0BB"/>
	</linearGradient>
	<path style="fill:url(#SVGID_00000176031856418519118720000012434434283458322874_);" d="M568.854,252.252
		c-40.209,0-72.921-32.712-72.921-72.921s32.712-72.921,72.921-72.921s72.922,32.712,72.922,72.921S609.063,252.252,568.854,252.252
		z M568.854,112.411c-36.9,0-66.921,30.021-66.921,66.921s30.021,66.921,66.921,66.921s66.922-30.021,66.922-66.921
		S605.755,112.411,568.854,112.411z"/>
</g>
<g>
	<circle class="st1" cx="253.408" cy="336.274" r="69.921"/>
	
		<linearGradient id="SVGID_00000093855774849051629450000015482387364909192108_" gradientUnits="userSpaceOnUse" x1="180.4873" y1="336.2742" x2="326.3291" y2="336.2742">
		<stop  offset="0" style="stop-color:#00B4E5"/>
		<stop  offset="1" style="stop-color:#1CD0BB"/>
	</linearGradient>
	<path style="fill:url(#SVGID_00000093855774849051629450000015482387364909192108_);" d="M253.408,409.195
		c-40.208,0-72.921-32.712-72.921-72.921c0-40.208,32.712-72.921,72.921-72.921s72.921,32.712,72.921,72.921
		C326.329,376.483,293.617,409.195,253.408,409.195z M253.408,269.353c-36.9,0-66.921,30.021-66.921,66.921
		s30.021,66.921,66.921,66.921s66.921-30.021,66.921-66.921S290.309,269.353,253.408,269.353z"/>
</g>
<g>
	<circle class="st1" cx="568.855" cy="336.274" r="69.921"/>
	
		<linearGradient id="SVGID_00000079478759933609545260000015284236911608022963_" gradientUnits="userSpaceOnUse" x1="495.9336" y1="336.2742" x2="641.7764" y2="336.2742">
		<stop  offset="0" style="stop-color:#00B4E5"/>
		<stop  offset="1" style="stop-color:#1CD0BB"/>
	</linearGradient>
	<path style="fill:url(#SVGID_00000079478759933609545260000015284236911608022963_);" d="M568.854,409.195
		c-40.209,0-72.921-32.712-72.921-72.921c0-40.208,32.712-72.921,72.921-72.921s72.922,32.712,72.922,72.921
		C641.776,376.483,609.063,409.195,568.854,409.195z M568.854,269.353c-36.9,0-66.921,30.021-66.921,66.921
		s30.021,66.921,66.921,66.921s66.922-30.021,66.922-66.921S605.755,269.353,568.854,269.353z"/>
</g>
<g>
	<circle class="st1" cx="411.499" cy="434.606" r="69.921"/>
	
		<linearGradient id="SVGID_00000165918009050541098190000013214963754458509709_" gradientUnits="userSpaceOnUse" x1="338.5781" y1="434.6055" x2="484.4199" y2="434.6055">
		<stop  offset="0" style="stop-color:#00B4E5"/>
		<stop  offset="1" style="stop-color:#1CD0BB"/>
	</linearGradient>
	<path style="fill:url(#SVGID_00000165918009050541098190000013214963754458509709_);" d="M411.499,507.526
		c-40.208,0-72.921-32.712-72.921-72.921c0-40.208,32.712-72.921,72.921-72.921c40.209,0,72.921,32.712,72.921,72.921
		C484.42,474.814,451.708,507.526,411.499,507.526z M411.499,367.685c-36.9,0-66.921,30.021-66.921,66.921
		s30.021,66.921,66.921,66.921s66.921-30.021,66.921-66.921S448.399,367.685,411.499,367.685z"/>
</g>
<g>
	<g>
		<path class="st1" d="M345.987,232.436h7.202c2.003,0,3.556,0.563,4.591,1.598c0.878,0.878,1.351,2.116,1.351,3.601v0.045
			c0,2.543-1.373,4.141-3.376,4.884l3.849,5.626h-4.051l-3.376-5.042h-2.724v5.042h-3.466V232.436z M352.964,240.088
			c1.688,0,2.656-0.9,2.656-2.228v-0.045c0-1.485-1.035-2.251-2.723-2.251h-3.444v4.524H352.964z"/>
		<path class="st1" d="M363.653,232.436h11.883v3.083h-8.44v3.196h7.427v3.083h-7.427v3.309h8.553v3.083h-11.996V232.436z"/>
		<path class="st1" d="M379.046,245.895l2.048-2.453c1.418,1.17,2.903,1.913,4.704,1.913c1.417,0,2.273-0.562,2.273-1.485v-0.045
			c0-0.878-0.54-1.328-3.173-2.003c-3.173-0.81-5.222-1.688-5.222-4.816v-0.045c0-2.858,2.296-4.749,5.514-4.749
			c2.296,0,4.254,0.72,5.852,2.003l-1.8,2.611c-1.396-0.968-2.769-1.553-4.096-1.553c-1.328,0-2.026,0.608-2.026,1.373v0.045
			c0,1.035,0.675,1.373,3.398,2.071c3.196,0.833,4.997,1.98,4.997,4.726v0.045c0,3.128-2.386,4.884-5.784,4.884
			C383.345,248.416,380.937,247.583,379.046,245.895z"/>
		<path class="st1" d="M396.083,232.436h3.466v15.755h-3.466V232.436z"/>
		<path class="st1" d="M404.883,232.436h3.466v12.604h7.855v3.151h-11.321V232.436z"/>
		<path class="st1" d="M420.365,232.436h3.466v15.755h-3.466V232.436z"/>
		<path class="st1" d="M429.165,232.436h11.884v3.083h-8.44v3.196h7.428v3.083h-7.428v3.309h8.553v3.083h-11.996V232.436z"/>
		<path class="st1" d="M445.639,232.436h3.196l7.382,9.701v-9.701h3.421v15.755h-2.948l-7.63-10.016v10.016h-3.421V232.436z"/>
		<path class="st1" d="M468.482,235.632h-4.794v-3.196h13.054v3.196h-4.794v12.559h-3.466V235.632z"/>
		<path class="st1" d="M317.844,272.901l2.048-2.453c1.418,1.17,2.903,1.913,4.704,1.913c1.418,0,2.273-0.562,2.273-1.485v-0.045
			c0-0.878-0.54-1.328-3.173-2.003c-3.173-0.81-5.222-1.688-5.222-4.816v-0.045c0-2.858,2.296-4.749,5.514-4.749
			c2.296,0,4.254,0.72,5.852,2.003l-1.8,2.611c-1.396-0.968-2.769-1.553-4.096-1.553c-1.328,0-2.026,0.608-2.026,1.373v0.045
			c0,1.035,0.675,1.373,3.399,2.071c3.196,0.833,4.996,1.98,4.996,4.726v0.045c0,3.128-2.386,4.884-5.784,4.884
			C322.143,275.422,319.734,274.589,317.844,272.901z"/>
		<path class="st1" d="M334.476,268.445v-9.003h3.466v8.913c0,2.566,1.283,3.894,3.398,3.894c2.116,0,3.399-1.283,3.399-3.781
			v-9.025h3.466v8.89c0,4.771-2.678,7.112-6.91,7.112C337.064,275.444,334.476,273.081,334.476,268.445z"/>
		<path class="st1" d="M353.132,259.442h6.437c3.758,0,6.032,2.229,6.032,5.447v0.045c0,3.646-2.836,5.537-6.37,5.537h-2.633v4.727
			h-3.466V259.442z M359.344,267.387c1.733,0,2.746-1.035,2.746-2.385v-0.045c0-1.553-1.08-2.386-2.813-2.386h-2.678v4.816H359.344z
			"/>
		<path class="st1" d="M369.562,259.442h6.437c3.758,0,6.032,2.229,6.032,5.447v0.045c0,3.646-2.836,5.537-6.37,5.537h-2.633v4.727
			h-3.466V259.442z M375.773,267.387c1.733,0,2.746-1.035,2.746-2.385v-0.045c0-1.553-1.08-2.386-2.813-2.386h-2.678v4.816H375.773z
			"/>
		<path class="st1" d="M385.991,259.442h3.466v12.604h7.855v3.151h-11.321V259.442z"/>
		<path class="st1" d="M402.825,268.985l-6.054-9.543h4.051l3.759,6.325l3.826-6.325h3.938l-6.054,9.476v6.279h-3.466V268.985z"/>
		<path class="st1" d="M423.349,267.364v-0.045c0-4.479,3.377-8.147,8.216-8.147c2.971,0,4.748,0.99,6.212,2.431l-2.206,2.543
			c-1.216-1.103-2.453-1.778-4.028-1.778c-2.656,0-4.569,2.206-4.569,4.906v0.045c0,2.701,1.868,4.952,4.569,4.952
			c1.8,0,2.903-0.72,4.141-1.846l2.206,2.228c-1.621,1.733-3.421,2.813-6.46,2.813C426.793,275.467,423.349,271.888,423.349,267.364
			z"/>
		<path class="st1" d="M442.051,259.442h3.466v6.234h6.392v-6.234h3.467v15.755h-3.467v-6.324h-6.392v6.324h-3.466V259.442z"/>
		<path class="st1" d="M465.95,259.33h3.196l6.752,15.867h-3.624l-1.44-3.534h-6.662l-1.44,3.534h-3.533L465.95,259.33z
			 M469.597,268.603l-2.094-5.109l-2.093,5.109H469.597z"/>
		<path class="st1" d="M479.881,259.442h3.466v15.755h-3.466V259.442z"/>
		<path class="st1" d="M488.681,259.442h3.196l7.382,9.701v-9.701h3.421v15.755h-2.948l-7.63-10.016v10.016h-3.421V259.442z"/>
	</g>
</g>
<g>
	<g>
		<path class="st0" d="M381.003,79.096h3.675c1.037,0,1.85,0.306,2.379,0.824c0.436,0.448,0.684,1.061,0.684,1.779v0.023
			c0,1.355-0.813,2.167-1.956,2.498l2.227,3.122h-1.72l-2.026-2.875h-1.814v2.875h-1.449V79.096z M384.572,83.183
			c1.037,0,1.696-0.542,1.696-1.378v-0.023c0-0.883-0.636-1.366-1.708-1.366h-2.108v2.768H384.572z"/>
		<path class="st0" d="M389.458,79.096h6.114v1.295h-4.665v2.144h4.134v1.296h-4.134v2.214h4.724v1.296h-6.173V79.096z"/>
		<path class="st0" d="M397.291,79.096h1.449v6.926h4.335v1.319h-5.784V79.096z"/>
		<path class="st0" d="M404.604,79.096h1.449v8.246h-1.449V79.096z"/>
		<path class="st0" d="M411.117,79.037h1.343l3.628,8.305h-1.531l-0.836-1.991h-3.899l-0.848,1.991h-1.484L411.117,79.037z
			 M413.19,84.066l-1.425-3.298l-1.414,3.298H413.19z"/>
		<path class="st0" d="M417.44,79.096h3.698c0.942,0,1.685,0.259,2.156,0.73c0.365,0.365,0.554,0.813,0.554,1.367v0.023
			c0,0.989-0.565,1.52-1.179,1.838c0.967,0.33,1.638,0.883,1.638,2.002v0.023c0,1.473-1.213,2.262-3.051,2.262h-3.816V79.096z
			 M422.399,81.428c0-0.648-0.519-1.048-1.449-1.048h-2.085v2.191h1.979c0.931,0,1.555-0.365,1.555-1.119V81.428z M421.162,83.795
			h-2.297v2.262h2.403c0.989,0,1.59-0.389,1.59-1.131v-0.023C422.858,84.208,422.305,83.795,421.162,83.795z"/>
		<path class="st0" d="M425.885,79.096h1.448v6.926h4.335v1.319h-5.783V79.096z"/>
		<path class="st0" d="M433.116,79.096h6.113v1.295h-4.665v2.144h4.135v1.296h-4.135v2.214h4.724v1.296h-6.172V79.096z"/>
		<path class="st0" d="M440.288,88.449c0.719-0.142,1.061-0.507,1.013-1.107h-0.612v-1.625h1.567v1.378
			c0,1.308-0.625,1.861-1.814,1.967L440.288,88.449z"/>
		<path class="st0" d="M372.112,93.169h1.343l3.628,8.305h-1.531l-0.836-1.991h-3.899l-0.849,1.991h-1.484L372.112,93.169z
			 M374.185,98.199L372.76,94.9l-1.414,3.298H374.185z"/>
		<path class="st0" d="M378.435,93.228h1.449v6.927h4.335v1.319h-5.784V93.228z"/>
		<path class="st0" d="M387.693,94.571h-2.615v-1.343h6.691v1.343h-2.615v6.903h-1.46V94.571z"/>
		<path class="st0" d="M393.239,93.228h6.114v1.296h-4.665v2.144h4.134v1.296h-4.134v2.214h4.724v1.296h-6.173V93.228z"/>
		<path class="st0" d="M401.071,93.228h3.675c1.037,0,1.85,0.307,2.38,0.825c0.436,0.448,0.683,1.06,0.683,1.779v0.023
			c0,1.355-0.813,2.167-1.956,2.498l2.227,3.122h-1.72l-2.026-2.874h-1.814v2.874h-1.449V93.228z M404.64,97.315
			c1.037,0,1.696-0.542,1.696-1.378v-0.023c0-0.883-0.636-1.367-1.708-1.367h-2.108v2.769H404.64z"/>
		<path class="st0" d="M409.526,93.228h1.343l4.418,5.702v-5.702h1.425v8.246h-1.213l-4.547-5.866v5.866h-1.426V93.228z"/>
		<path class="st0" d="M421.692,93.169h1.343l3.629,8.305h-1.532l-0.836-1.991h-3.899l-0.848,1.991h-1.484L421.692,93.169z
			 M423.766,98.199l-1.425-3.298l-1.414,3.298H423.766z"/>
		<path class="st0" d="M430.042,94.571h-2.614v-1.343h6.69v1.343h-2.615v6.903h-1.461V94.571z"/>
		<path class="st0" d="M435.672,93.228h1.449v8.246h-1.449V93.228z"/>
		<path class="st0" d="M438.557,93.228h1.602l2.486,6.338l2.474-6.338h1.566l-3.416,8.305h-1.284L438.557,93.228z"/>
		<path class="st0" d="M448.038,93.228h6.113v1.296h-4.665v2.144h4.135v1.296h-4.135v2.214h4.724v1.296h-6.172V93.228z"/>
		<path class="st0" d="M378.665,114.404l0.872-1.037c0.789,0.683,1.59,1.072,2.603,1.072c0.896,0,1.461-0.424,1.461-1.037v-0.024
			c0-0.589-0.33-0.907-1.861-1.26c-1.755-0.424-2.745-0.942-2.745-2.462v-0.023c0-1.414,1.178-2.392,2.815-2.392
			c1.201,0,2.156,0.365,2.992,1.037l-0.778,1.096c-0.742-0.554-1.484-0.848-2.238-0.848c-0.849,0-1.343,0.436-1.343,0.978v0.023
			c0,0.636,0.377,0.919,1.967,1.296c1.744,0.424,2.639,1.048,2.639,2.415v0.023c0,1.543-1.213,2.462-2.945,2.462
			C380.845,115.724,379.655,115.288,378.665,114.404z"/>
		<path class="st0" d="M386.567,112.107v-4.747h1.449v4.688c0,1.532,0.79,2.344,2.085,2.344c1.284,0,2.073-0.766,2.073-2.285v-4.747
			h1.449v4.676c0,2.462-1.39,3.699-3.546,3.699C387.934,115.735,386.567,114.499,386.567,112.107z"/>
		<path class="st0" d="M395.553,107.36h3.251c1.932,0,3.133,1.095,3.133,2.756v0.023c0,1.85-1.484,2.815-3.298,2.815h-1.637v2.65
			h-1.449V107.36z M398.687,111.648c1.096,0,1.779-0.613,1.779-1.473v-0.023c0-0.966-0.695-1.472-1.779-1.472h-1.684v2.968H398.687z
			"/>
		<path class="st0" d="M403.361,107.36h3.251c1.932,0,3.133,1.095,3.133,2.756v0.023c0,1.85-1.484,2.815-3.298,2.815h-1.637v2.65
			h-1.449V107.36z M406.495,111.648c1.095,0,1.778-0.613,1.778-1.473v-0.023c0-0.966-0.695-1.472-1.778-1.472h-1.685v2.968H406.495z
			"/>
		<path class="st0" d="M411.17,107.36h1.448v6.926h4.335v1.319h-5.783V107.36z"/>
		<path class="st0" d="M418.482,107.36h1.449v8.246h-1.449V107.36z"/>
		<path class="st0" d="M422.075,107.36h6.113v1.295h-4.665v2.144h4.135v1.296h-4.135v2.214h4.724v1.296h-6.172V107.36z"/>
		<path class="st0" d="M429.907,107.36h3.675c1.037,0,1.85,0.306,2.38,0.824c0.436,0.448,0.683,1.061,0.683,1.779v0.023
			c0,1.355-0.812,2.167-1.955,2.498l2.227,3.122h-1.72l-2.026-2.875h-1.814v2.875h-1.448V107.36z M433.477,111.448
			c1.036,0,1.696-0.542,1.696-1.378v-0.023c0-0.883-0.637-1.366-1.708-1.366h-2.109v2.768H433.477z"/>
		<path class="st0" d="M437.81,114.404l0.871-1.037c0.79,0.683,1.591,1.072,2.604,1.072c0.896,0,1.461-0.424,1.461-1.037v-0.024
			c0-0.589-0.33-0.907-1.861-1.26c-1.755-0.424-2.745-0.942-2.745-2.462v-0.023c0-1.414,1.179-2.392,2.815-2.392
			c1.202,0,2.156,0.365,2.992,1.037l-0.777,1.096c-0.742-0.554-1.484-0.848-2.238-0.848c-0.848,0-1.343,0.436-1.343,0.978v0.023
			c0,0.636,0.377,0.919,1.968,1.296c1.743,0.424,2.639,1.048,2.639,2.415v0.023c0,1.543-1.214,2.462-2.945,2.462
			C439.988,115.724,438.799,115.288,437.81,114.404z"/>
	</g>
</g>
<g>
	<g>
		<path class="st0" d="M366.794,426.819v-0.023c0-2.32,1.791-4.264,4.323-4.264s4.3,1.92,4.3,4.24v0.023
			c0,2.32-1.791,4.265-4.323,4.265S366.794,429.141,366.794,426.819z M373.898,426.819v-0.023c0-1.602-1.167-2.933-2.804-2.933
			s-2.78,1.307-2.78,2.909v0.023c0,1.603,1.166,2.922,2.803,2.922C372.755,429.718,373.898,428.422,373.898,426.819z"/>
		<path class="st0" d="M377.111,422.673h3.251c1.932,0,3.133,1.096,3.133,2.757v0.023c0,1.85-1.484,2.815-3.298,2.815h-1.637v2.65
			h-1.449V422.673z M380.244,426.961c1.096,0,1.779-0.612,1.779-1.473v-0.023c0-0.966-0.695-1.473-1.779-1.473h-1.684v2.969H380.244
			z"/>
		<path class="st0" d="M386.946,424.016h-2.615v-1.343h6.691v1.343h-2.615v6.903h-1.46V424.016z"/>
		<path class="st0" d="M392.574,422.673h1.449v8.246h-1.449V422.673z"/>
		<path class="st0" d="M396.166,422.673h1.543l2.509,3.899l2.509-3.899h1.543v8.246h-1.449v-5.913l-2.604,3.887h-0.047l-2.58-3.863
			v5.89h-1.425V422.673z"/>
		<path class="st0" d="M406.412,422.673h1.449v8.246h-1.449V422.673z"/>
		<path class="st0" d="M409.708,429.847l4.865-5.89h-4.711v-1.284h6.608v1.072l-4.876,5.89h4.876v1.284h-6.761V429.847z"/>
		<path class="st0" d="M421.133,422.614h1.343l3.629,8.305h-1.532l-0.836-1.991h-3.899l-0.848,1.991h-1.484L421.133,422.614z
			 M423.206,427.645l-1.425-3.299l-1.414,3.299H423.206z"/>
		<path class="st0" d="M429.482,424.016h-2.614v-1.343h6.69v1.343h-2.615v6.903h-1.461V424.016z"/>
		<path class="st0" d="M435.111,422.673h1.449v8.246h-1.449V422.673z"/>
		<path class="st0" d="M438.339,426.819v-0.023c0-2.32,1.79-4.264,4.323-4.264c2.532,0,4.299,1.92,4.299,4.24v0.023
			c0,2.32-1.79,4.265-4.323,4.265C440.105,431.061,438.339,429.141,438.339,426.819z M445.441,426.819v-0.023
			c0-1.602-1.166-2.933-2.804-2.933c-1.637,0-2.779,1.307-2.779,2.909v0.023c0,1.603,1.166,2.922,2.804,2.922
			C444.299,429.718,445.441,428.422,445.441,426.819z"/>
		<path class="st0" d="M448.656,422.673h1.343l4.417,5.702v-5.702h1.426v8.246h-1.214l-4.547-5.866v5.866h-1.425V422.673z"/>
		<path class="st0" d="M363.209,436.747h1.343l3.628,8.305h-1.531l-0.836-1.991h-3.899l-0.849,1.991h-1.484L363.209,436.747z
			 M365.283,441.777l-1.425-3.299l-1.414,3.299H365.283z"/>
		<path class="st0" d="M369.533,436.806h1.343l4.417,5.702v-5.702h1.426v8.246h-1.213l-4.547-5.866v5.866h-1.425V436.806z"/>
		<path class="st0" d="M378.778,436.806h3.075c2.591,0,4.382,1.779,4.382,4.1v0.023c0,2.32-1.791,4.123-4.382,4.123h-3.075V436.806z
			 M380.227,438.125v5.607h1.625c1.731,0,2.862-1.166,2.862-2.78v-0.023c0-1.613-1.131-2.804-2.862-2.804H380.227z"/>
		<path class="st0" d="M391.403,436.806h3.675c1.037,0,1.85,0.307,2.38,0.825c0.436,0.447,0.683,1.06,0.683,1.778v0.023
			c0,1.354-0.813,2.168-1.956,2.497l2.227,3.122h-1.72l-2.026-2.874h-1.814v2.874h-1.449V436.806z M394.972,440.894
			c1.037,0,1.696-0.542,1.696-1.378v-0.023c0-0.884-0.636-1.367-1.708-1.367h-2.108v2.769H394.972z"/>
		<path class="st0" d="M399.858,436.806h6.114v1.296h-4.665v2.145h4.135v1.295h-4.135v2.215h4.724v1.296h-6.173V436.806z"/>
		<path class="st0" d="M407.69,436.806h3.075c2.592,0,4.382,1.779,4.382,4.1v0.023c0,2.32-1.79,4.123-4.382,4.123h-3.075V436.806z
			 M409.139,438.125v5.607h1.625c1.731,0,2.862-1.166,2.862-2.78v-0.023c0-1.613-1.131-2.804-2.862-2.804H409.139z"/>
		<path class="st0" d="M416.712,441.553v-4.747h1.449v4.688c0,1.531,0.789,2.345,2.085,2.345c1.284,0,2.073-0.767,2.073-2.286
			v-4.747h1.448v4.677c0,2.462-1.39,3.699-3.545,3.699C418.078,445.182,416.712,443.944,416.712,441.553z"/>
		<path class="st0" d="M425.333,440.952v-0.023c0-2.344,1.755-4.265,4.252-4.265c1.52,0,2.438,0.53,3.228,1.284l-0.931,1.072
			c-0.659-0.612-1.366-1.024-2.309-1.024c-1.566,0-2.721,1.295-2.721,2.909v0.023c0,1.614,1.143,2.922,2.721,2.922
			c1.014,0,1.661-0.401,2.368-1.061l0.931,0.942c-0.86,0.896-1.803,1.461-3.346,1.461
			C427.123,445.193,425.333,443.32,425.333,440.952z"/>
		<path class="st0" d="M436.355,438.148h-2.614v-1.343h6.69v1.343h-2.615v6.903h-1.461V438.148z"/>
		<path class="st0" d="M441.985,436.806h1.449v8.246h-1.449V436.806z"/>
		<path class="st0" d="M445.213,440.952v-0.023c0-2.32,1.79-4.265,4.323-4.265c2.532,0,4.299,1.921,4.299,4.241v0.023
			c0,2.32-1.79,4.265-4.322,4.265C446.979,445.193,445.213,443.273,445.213,440.952z M452.315,440.952v-0.023
			c0-1.602-1.166-2.933-2.803-2.933c-1.638,0-2.78,1.307-2.78,2.909v0.023c0,1.603,1.166,2.922,2.804,2.922
			C451.173,443.851,452.315,442.555,452.315,440.952z"/>
		<path class="st0" d="M455.529,436.806h1.343l4.417,5.702v-5.702h1.426v8.246h-1.214l-4.547-5.866v5.866h-1.425V436.806z"/>
		<path class="st0" d="M359.97,455.084v-0.023c0-2.32,1.791-4.264,4.323-4.264s4.3,1.92,4.3,4.24v0.023
			c0,2.32-1.791,4.265-4.323,4.265S359.97,457.405,359.97,455.084z M367.073,455.084v-0.023c0-1.602-1.167-2.933-2.804-2.933
			s-2.78,1.308-2.78,2.909v0.023c0,1.603,1.167,2.922,2.804,2.922C365.931,457.982,367.073,456.687,367.073,455.084z"/>
		<path class="st0" d="M370.286,450.938h6.137v1.319h-4.688v2.25h4.158v1.319h-4.158v3.357h-1.449V450.938z"/>
		<path class="st0" d="M381.427,450.938h3.251c1.932,0,3.133,1.096,3.133,2.757v0.023c0,1.85-1.484,2.815-3.298,2.815h-1.637v2.65
			h-1.449V450.938z M384.561,455.226c1.096,0,1.779-0.612,1.779-1.473v-0.023c0-0.966-0.695-1.473-1.779-1.473h-1.684v2.969H384.561
			z"/>
		<path class="st0" d="M389.236,450.938h3.675c1.037,0,1.85,0.307,2.38,0.825c0.436,0.447,0.683,1.06,0.683,1.778v0.023
			c0,1.354-0.813,2.168-1.956,2.497l2.227,3.122h-1.72l-2.026-2.874h-1.814v2.874h-1.449V450.938z M392.805,455.025
			c1.037,0,1.696-0.542,1.696-1.378v-0.024c0-0.883-0.636-1.366-1.708-1.366h-2.108v2.769H392.805z"/>
		<path class="st0" d="M397.326,455.084v-0.023c0-2.32,1.791-4.264,4.323-4.264s4.3,1.92,4.3,4.24v0.023
			c0,2.32-1.791,4.265-4.323,4.265S397.326,457.405,397.326,455.084z M404.43,455.084v-0.023c0-1.602-1.167-2.933-2.804-2.933
			s-2.78,1.308-2.78,2.909v0.023c0,1.603,1.167,2.922,2.804,2.922C403.287,457.982,404.43,456.687,404.43,455.084z"/>
		<path class="st0" d="M407.643,450.938h3.074c2.592,0,4.383,1.779,4.383,4.1v0.023c0,2.32-1.791,4.123-4.383,4.123h-3.074V450.938z
			 M409.092,452.257v5.607h1.625c1.732,0,2.863-1.166,2.863-2.78v-0.023c0-1.613-1.131-2.804-2.863-2.804H409.092z"/>
		<path class="st0" d="M416.664,455.685v-4.747h1.449v4.688c0,1.531,0.789,2.345,2.085,2.345c1.283,0,2.073-0.766,2.073-2.286
			v-4.747h1.448v4.677c0,2.462-1.39,3.699-3.545,3.699C418.03,459.313,416.664,458.076,416.664,455.685z"/>
		<path class="st0" d="M425.285,455.084v-0.023c0-2.344,1.755-4.264,4.252-4.264c1.52,0,2.438,0.529,3.228,1.283l-0.931,1.072
			c-0.659-0.612-1.366-1.024-2.309-1.024c-1.566,0-2.721,1.295-2.721,2.909v0.023c0,1.614,1.143,2.922,2.721,2.922
			c1.014,0,1.661-0.4,2.368-1.061l0.931,0.942c-0.86,0.896-1.803,1.461-3.346,1.461
			C427.075,459.325,425.285,457.452,425.285,455.084z"/>
		<path class="st0" d="M436.308,452.28h-2.615v-1.343h6.691v1.343h-2.615v6.903h-1.461V452.28z"/>
		<path class="st0" d="M441.938,450.938h1.449v8.246h-1.449V450.938z"/>
		<path class="st0" d="M445.165,455.084v-0.023c0-2.32,1.79-4.264,4.323-4.264c2.532,0,4.299,1.92,4.299,4.24v0.023
			c0,2.32-1.79,4.265-4.323,4.265C446.932,459.325,445.165,457.405,445.165,455.084z M452.268,455.084v-0.023
			c0-1.602-1.166-2.933-2.804-2.933c-1.637,0-2.779,1.308-2.779,2.909v0.023c0,1.603,1.166,2.922,2.804,2.922
			C451.125,457.982,452.268,456.687,452.268,455.084z"/>
		<path class="st0" d="M455.481,450.938h1.343l4.417,5.701v-5.701h1.426v8.246h-1.214l-4.547-5.866v5.866h-1.425V450.938z"/>
		<path class="st0" d="M389.288,465.07h1.567l1.967,6.114l2.026-6.138h1.225l2.026,6.138l1.967-6.114h1.52l-2.862,8.305h-1.261
			l-2.026-5.925l-2.026,5.925h-1.249L389.288,465.07z"/>
		<path class="st0" d="M405.93,465.012h1.343l3.629,8.305h-1.532l-0.836-1.991h-3.899l-0.848,1.991h-1.484L405.93,465.012z
			 M408.003,470.042l-1.425-3.299l-1.414,3.299H408.003z"/>
		<path class="st0" d="M411.7,472.115l0.871-1.037c0.789,0.684,1.591,1.072,2.604,1.072c0.896,0,1.461-0.424,1.461-1.037v-0.023
			c0-0.589-0.33-0.907-1.861-1.26c-1.755-0.425-2.745-0.943-2.745-2.463v-0.023c0-1.413,1.179-2.391,2.815-2.391
			c1.202,0,2.156,0.365,2.992,1.036l-0.777,1.096c-0.742-0.554-1.484-0.849-2.238-0.849c-0.848,0-1.343,0.437-1.343,0.979v0.023
			c0,0.636,0.377,0.919,1.968,1.296c1.743,0.424,2.639,1.048,2.639,2.414v0.024c0,1.543-1.214,2.462-2.945,2.462
			C413.879,473.435,412.689,472.998,411.7,472.115z"/>
		<path class="st0" d="M421.758,466.413h-2.614v-1.343h6.69v1.343h-2.615v6.903h-1.461V466.413z"/>
		<path class="st0" d="M427.306,465.07h6.113v1.296h-4.665v2.144h4.135v1.296h-4.135v2.215h4.724v1.296h-6.172V465.07z"/>
	</g>
</g>
<g>
	<g>
		<path class="st0" d="M537.988,177.717h3.675c1.037,0,1.85,0.307,2.38,0.825c0.436,0.448,0.683,1.06,0.683,1.779v0.023
			c0,1.355-0.812,2.167-1.955,2.498l2.227,3.122h-1.72l-2.026-2.874h-1.814v2.874h-1.448V177.717z M541.558,181.805
			c1.036,0,1.696-0.542,1.696-1.378v-0.023c0-0.883-0.637-1.367-1.708-1.367h-2.109v2.769H541.558z"/>
		<path class="st0" d="M546.444,177.717h6.113v1.296h-4.665v2.144h4.135v1.296h-4.135v2.214h4.724v1.296h-6.172V177.717z"/>
		<path class="st0" d="M557.196,177.658h1.343l3.628,8.305h-1.531l-0.836-1.991H555.9l-0.848,1.991h-1.484L557.196,177.658z
			 M559.27,182.688l-1.425-3.298l-1.414,3.298H559.27z"/>
		<path class="st0" d="M563.521,177.717h1.448v6.927h4.335v1.319h-5.783V177.717z"/>
		<path class="st0" d="M570.834,177.717h1.449v8.246h-1.449V177.717z"/>
		<path class="st0" d="M573.872,184.761l0.871-1.037c0.789,0.684,1.591,1.072,2.604,1.072c0.896,0,1.461-0.424,1.461-1.037v-0.024
			c0-0.589-0.33-0.907-1.861-1.26c-1.755-0.424-2.745-0.942-2.745-2.462v-0.023c0-1.414,1.179-2.392,2.815-2.392
			c1.202,0,2.156,0.365,2.992,1.037l-0.777,1.096c-0.742-0.554-1.484-0.848-2.238-0.848c-0.848,0-1.343,0.436-1.343,0.978v0.024
			c0,0.636,0.377,0.918,1.968,1.295c1.743,0.424,2.639,1.048,2.639,2.415v0.023c0,1.543-1.214,2.462-2.945,2.462
			C576.051,186.081,574.861,185.645,573.872,184.761z"/>
		<path class="st0" d="M583.93,179.06h-2.614v-1.343h6.69v1.343h-2.615v6.903h-1.461V179.06z"/>
		<path class="st0" d="M589.56,177.717h1.449v8.246h-1.449V177.717z"/>
		<path class="st0" d="M592.787,181.863v-0.023c0-2.344,1.755-4.264,4.252-4.264c1.52,0,2.438,0.53,3.228,1.284l-0.931,1.072
			c-0.659-0.612-1.366-1.025-2.309-1.025c-1.566,0-2.721,1.296-2.721,2.91v0.023c0,1.614,1.143,2.921,2.721,2.921
			c1.014,0,1.661-0.4,2.368-1.06l0.931,0.942c-0.86,0.896-1.803,1.461-3.346,1.461C594.577,186.104,592.787,184.231,592.787,181.863
			z"/>
		<path class="st0" d="M535.05,195.996v-0.024c0-2.344,1.755-4.264,4.252-4.264c1.52,0,2.438,0.53,3.228,1.284l-0.931,1.072
			c-0.659-0.613-1.366-1.025-2.309-1.025c-1.566,0-2.721,1.296-2.721,2.91v0.023c0,1.614,1.143,2.921,2.721,2.921
			c1.014,0,1.661-0.4,2.368-1.06l0.931,0.942c-0.86,0.895-1.803,1.46-3.346,1.46C536.84,200.236,535.05,198.364,535.05,195.996z"/>
		<path class="st0" d="M543.918,196.597v-4.747h1.449v4.688c0,1.532,0.789,2.344,2.085,2.344c1.283,0,2.073-0.766,2.073-2.285
			v-4.747h1.448v4.676c0,2.462-1.39,3.699-3.545,3.699C545.284,200.225,543.918,198.988,543.918,196.597z"/>
		<path class="st0" d="M552.35,198.894l0.871-1.037c0.79,0.683,1.591,1.072,2.604,1.072c0.896,0,1.461-0.424,1.461-1.037v-0.024
			c0-0.589-0.33-0.907-1.861-1.26c-1.755-0.424-2.745-0.942-2.745-2.462v-0.023c0-1.414,1.179-2.392,2.815-2.392
			c1.202,0,2.156,0.365,2.992,1.037l-0.777,1.096c-0.742-0.554-1.484-0.848-2.238-0.848c-0.848,0-1.343,0.436-1.343,0.978v0.023
			c0,0.636,0.377,0.919,1.968,1.296c1.743,0.424,2.639,1.048,2.639,2.415v0.023c0,1.543-1.214,2.462-2.945,2.462
			C554.528,200.213,553.339,199.777,552.35,198.894z"/>
		<path class="st0" d="M562.407,193.192h-2.615v-1.343h6.691v1.343h-2.615v6.903h-1.461V193.192z"/>
		<path class="st0" d="M567.59,195.996v-0.024c0-2.32,1.79-4.264,4.323-4.264c2.532,0,4.299,1.92,4.299,4.241v0.023
			c0,2.321-1.79,4.264-4.322,4.264C569.356,200.236,567.59,198.316,567.59,195.996z M574.692,195.996v-0.024
			c0-1.602-1.166-2.933-2.803-2.933c-1.638,0-2.78,1.308-2.78,2.91v0.023c0,1.602,1.166,2.921,2.804,2.921
			C573.55,198.894,574.692,197.598,574.692,195.996z"/>
		<path class="st0" d="M577.906,191.85h1.543l2.509,3.899l2.509-3.899h1.544v8.246h-1.449v-5.914l-2.604,3.888h-0.047l-2.58-3.864
			v5.89h-1.425V191.85z"/>
		<path class="st0" d="M588.07,191.85h6.113v1.295h-4.665v2.144h4.135v1.296h-4.135v2.214h4.724v1.296h-6.172V191.85z"/>
		<path class="st0" d="M595.902,191.85h3.675c1.037,0,1.85,0.306,2.38,0.824c0.436,0.448,0.683,1.061,0.683,1.779v0.023
			c0,1.355-0.812,2.167-1.955,2.498l2.227,3.122h-1.72l-2.026-2.875h-1.814v2.875h-1.448V191.85z M599.472,195.937
			c1.036,0,1.696-0.542,1.696-1.378v-0.023c0-0.883-0.637-1.366-1.708-1.366h-2.109v2.768H599.472z"/>
		<path class="st0" d="M542.493,205.981h3.074c2.592,0,4.382,1.779,4.382,4.1v0.023c0,2.321-1.79,4.123-4.382,4.123h-3.074V205.981z
			 M543.941,207.301v5.607h1.626c1.731,0,2.862-1.166,2.862-2.78v-0.023c0-1.614-1.131-2.804-2.862-2.804H543.941z"/>
		<path class="st0" d="M551.645,205.981h6.113v1.296h-4.665v2.144h4.135v1.296h-4.135v2.214h4.724v1.296h-6.172V205.981z"/>
		<path class="st0" d="M559.476,205.981h1.543l2.509,3.899l2.509-3.899h1.544v8.246h-1.449v-5.914l-2.604,3.887h-0.047l-2.58-3.863
			v5.89h-1.425V205.981z"/>
		<path class="st0" d="M572.561,205.923h1.343l3.629,8.305H576l-0.836-1.991h-3.899l-0.848,1.991h-1.484L572.561,205.923z
			 M574.634,210.953l-1.425-3.298l-1.414,3.298H574.634z"/>
		<path class="st0" d="M578.885,205.981h1.343l4.417,5.702v-5.702h1.426v8.246h-1.214l-4.547-5.866v5.866h-1.425V205.981z"/>
		<path class="st0" d="M588.129,205.981h3.074c2.592,0,4.382,1.779,4.382,4.1v0.023c0,2.321-1.79,4.123-4.382,4.123h-3.074V205.981z
			 M589.577,207.301v5.607h1.626c1.731,0,2.862-1.166,2.862-2.78v-0.023c0-1.614-1.131-2.804-2.862-2.804H589.577z"/>
	</g>
</g>
<g>
	<g>
		<path class="st0" d="M537.988,323.951h6.113v1.296h-4.665v2.144h4.135v1.296h-4.135v2.214h4.724v1.296h-6.172V323.951z"/>
		<path class="st0" d="M545.82,323.951h6.137v1.319h-4.688v2.25h4.158v1.319h-4.158v3.357h-1.448V323.951z"/>
		<path class="st0" d="M553.486,323.951h6.137v1.319h-4.688v2.25h4.158v1.319h-4.158v3.357h-1.448V323.951z"/>
		<path class="st0" d="M561.235,323.951h1.449v8.246h-1.449V323.951z"/>
		<path class="st0" d="M564.463,328.098v-0.023c0-2.344,1.755-4.264,4.252-4.264c1.52,0,2.438,0.53,3.228,1.284l-0.931,1.072
			c-0.659-0.612-1.366-1.025-2.309-1.025c-1.566,0-2.721,1.296-2.721,2.91v0.023c0,1.614,1.143,2.921,2.721,2.921
			c1.014,0,1.661-0.4,2.368-1.06l0.931,0.942c-0.86,0.896-1.803,1.461-3.346,1.461C566.253,332.339,564.463,330.466,564.463,328.098
			z"/>
		<path class="st0" d="M573.542,323.951h1.449v8.246h-1.449V323.951z"/>
		<path class="st0" d="M577.135,323.951h6.113v1.296h-4.665v2.144h4.135v1.296h-4.135v2.214h4.724v1.296h-6.172V323.951z"/>
		<path class="st0" d="M584.967,323.951h1.343l4.417,5.702v-5.702h1.426v8.246h-1.214l-4.547-5.866v5.866h-1.425V323.951z"/>
		<path class="st0" d="M596.237,325.294h-2.615v-1.343h6.691v1.343h-2.615v6.903h-1.461V325.294z"/>
		<path class="st0" d="M538.177,338.084h1.543l2.509,3.899l2.509-3.899h1.544v8.246h-1.449v-5.914l-2.604,3.888h-0.047l-2.58-3.864
			v5.89h-1.425V338.084z"/>
		<path class="st0" d="M551.262,338.025h1.343l3.629,8.305h-1.532l-0.836-1.991h-3.899l-0.848,1.991h-1.484L551.262,338.025z
			 M553.335,343.055l-1.425-3.298l-1.414,3.298H553.335z"/>
		<path class="st0" d="M559.61,339.427h-2.615v-1.343h6.691v1.343h-2.615v6.903h-1.461V339.427z"/>
		<path class="st0" d="M565.158,338.084h6.113v1.295h-4.665v2.144h4.135v1.296h-4.135v2.214h4.724v1.296h-6.172V338.084z"/>
		<path class="st0" d="M572.99,338.084h3.675c1.037,0,1.85,0.306,2.38,0.824c0.436,0.448,0.683,1.061,0.683,1.779v0.023
			c0,1.355-0.812,2.167-1.955,2.498l2.227,3.122h-1.72l-2.026-2.875h-1.814v2.875h-1.448V338.084z M576.56,342.171
			c1.036,0,1.696-0.542,1.696-1.378v-0.023c0-0.883-0.637-1.366-1.708-1.366h-2.109v2.768H576.56z"/>
		<path class="st0" d="M581.527,338.084h1.449v8.246h-1.449V338.084z"/>
		<path class="st0" d="M588.041,338.025h1.343l3.629,8.305h-1.532l-0.836-1.991h-3.899l-0.848,1.991h-1.484L588.041,338.025z
			 M590.114,343.055l-1.425-3.298l-1.414,3.298H590.114z"/>
		<path class="st0" d="M594.365,338.084h1.448v6.926h4.335v1.319h-5.783V338.084z"/>
		<path class="st0" d="M521.212,352.216h3.675c1.037,0,1.85,0.307,2.38,0.825c0.436,0.448,0.683,1.06,0.683,1.779v0.023
			c0,1.355-0.812,2.167-1.955,2.498l2.227,3.122h-1.72l-2.026-2.874h-1.814v2.874h-1.448V352.216z M524.781,356.304
			c1.036,0,1.696-0.542,1.696-1.378v-0.023c0-0.883-0.637-1.367-1.709-1.367h-2.108v2.769H524.781z"/>
		<path class="st0" d="M529.668,352.216h6.113v1.296h-4.665v2.144h4.135v1.296h-4.135v2.214h4.724v1.296h-6.172V352.216z"/>
		<path class="st0" d="M544.932,360.709l-0.989-0.884c-0.695,0.483-1.543,0.778-2.51,0.778c-2.532,0-4.299-1.92-4.299-4.241v-0.023
			c0-2.32,1.79-4.264,4.323-4.264c2.532,0,4.299,1.92,4.299,4.241v0.023c0,0.931-0.306,1.814-0.836,2.533l0.942,0.801
			L544.932,360.709z M542.882,358.883l-1.425-1.213l0.931-1.06l1.448,1.319c0.26-0.448,0.4-0.978,0.4-1.567v-0.023
			c0-1.602-1.166-2.933-2.804-2.933c-1.637,0-2.779,1.308-2.779,2.91v0.023c0,1.602,1.166,2.921,2.804,2.921
			C541.999,359.26,542.481,359.119,542.882,358.883z"/>
		<path class="st0" d="M547.321,356.963v-4.748h1.449v4.688c0,1.531,0.789,2.344,2.085,2.344c1.284,0,2.073-0.766,2.073-2.285
			v-4.748h1.448v4.677c0,2.462-1.39,3.699-3.545,3.699C548.688,360.591,547.321,359.354,547.321,356.963z"/>
		<path class="st0" d="M556.39,352.216h1.449v8.246h-1.449V352.216z"/>
		<path class="st0" d="M559.981,352.216h3.675c1.037,0,1.85,0.307,2.38,0.825c0.436,0.448,0.683,1.06,0.683,1.779v0.023
			c0,1.355-0.812,2.167-1.955,2.498l2.227,3.122h-1.72l-2.026-2.874h-1.814v2.874h-1.448V352.216z M563.551,356.304
			c1.036,0,1.696-0.542,1.696-1.378v-0.023c0-0.883-0.637-1.367-1.709-1.367h-2.108v2.769H563.551z"/>
		<path class="st0" d="M568.438,352.216h6.113v1.296h-4.665v2.144h4.135v1.296h-4.135v2.214h4.724v1.296h-6.172V352.216z"/>
		<path class="st0" d="M576.27,352.216h1.543l2.509,3.899l2.509-3.899h1.544v8.246h-1.449v-5.914l-2.604,3.887h-0.047l-2.58-3.863
			v5.89h-1.425V352.216z"/>
		<path class="st0" d="M586.434,352.216h6.113v1.296h-4.665v2.144h4.135v1.296h-4.135v2.214h4.724v1.296h-6.172V352.216z"/>
		<path class="st0" d="M594.265,352.216h1.343l4.417,5.702v-5.702h1.426v8.246h-1.214l-4.547-5.866v5.866h-1.425V352.216z"/>
		<path class="st0" d="M605.535,353.559h-2.614v-1.343h6.69v1.343h-2.615v6.903h-1.461V353.559z"/>
		<path class="st0" d="M610.529,359.26l0.871-1.037c0.79,0.684,1.591,1.072,2.604,1.072c0.896,0,1.461-0.424,1.461-1.037v-0.024
			c0-0.589-0.33-0.907-1.861-1.26c-1.755-0.424-2.745-0.942-2.745-2.462v-0.023c0-1.414,1.179-2.392,2.815-2.392
			c1.202,0,2.156,0.365,2.992,1.037l-0.777,1.096c-0.742-0.554-1.484-0.848-2.238-0.848c-0.848,0-1.343,0.436-1.343,0.978v0.024
			c0,0.636,0.377,0.918,1.968,1.295c1.743,0.424,2.639,1.048,2.639,2.415v0.023c0,1.543-1.214,2.462-2.945,2.462
			C612.708,360.58,611.519,360.144,610.529,359.26z"/>
		<path class="st0" d="M537.452,366.349h3.251c1.932,0,3.134,1.096,3.134,2.757v0.023c0,1.85-1.484,2.815-3.299,2.815H538.9v2.65
			h-1.448V366.349z M540.585,370.637c1.096,0,1.779-0.612,1.779-1.473v-0.023c0-0.966-0.695-1.473-1.779-1.473H538.9v2.969H540.585z
			"/>
		<path class="st0" d="M545.261,366.349h1.448v6.927h4.335v1.319h-5.783V366.349z"/>
		<path class="st0" d="M555.412,366.29h1.343l3.629,8.305h-1.532l-0.836-1.991h-3.899l-0.848,1.991h-1.484L555.412,366.29z
			 M557.485,371.32l-1.425-3.298l-1.414,3.298H557.485z"/>
		<path class="st0" d="M561.736,366.349h1.343l4.417,5.702v-5.702h1.426v8.246h-1.214l-4.547-5.866v5.866h-1.425V366.349z"/>
		<path class="st0" d="M570.981,366.349h1.343l4.417,5.702v-5.702h1.426v8.246h-1.214l-4.547-5.866v5.866h-1.425V366.349z"/>
		<path class="st0" d="M580.308,366.349h1.449v8.246h-1.449V366.349z"/>
		<path class="st0" d="M583.9,366.349h1.343l4.417,5.702v-5.702h1.426v8.246h-1.214l-4.547-5.866v5.866H583.9V366.349z"/>
		<path class="st0" d="M592.78,370.495v-0.023c0-2.309,1.767-4.264,4.252-4.264c1.438,0,2.321,0.4,3.169,1.119l-0.919,1.095
			c-0.636-0.542-1.26-0.883-2.309-0.883c-1.52,0-2.674,1.331-2.674,2.91v0.023c0,1.696,1.119,2.945,2.804,2.945
			c0.777,0,1.483-0.248,1.99-0.625v-1.543h-2.108v-1.26h3.511v3.463c-0.813,0.695-1.979,1.284-3.44,1.284
			C594.477,374.736,592.78,372.898,592.78,370.495z"/>
		<path class="st0" d="M551.219,385.346c0-2.226,1.119-3.864,3.263-5.042l0.625,0.954c-1.673,1.107-2.463,2.332-2.463,4.087
			s0.79,2.969,2.463,4.087l-0.625,0.955C552.338,389.21,551.219,387.573,551.219,385.346z"/>
		<path class="st0" d="M556.672,380.481h1.543l2.509,3.899l2.509-3.899h1.544v8.246h-1.449v-5.914l-2.604,3.888h-0.047l-2.58-3.864
			v5.89h-1.425V380.481z"/>
		<path class="st0" d="M566.835,380.481h3.675c1.037,0,1.85,0.306,2.38,0.824c0.436,0.448,0.683,1.061,0.683,1.779v0.023
			c0,1.355-0.812,2.167-1.955,2.498l2.227,3.122h-1.72l-2.026-2.875h-1.814v2.875h-1.448V380.481z M570.404,384.569
			c1.036,0,1.696-0.542,1.696-1.378v-0.023c0-0.883-0.637-1.366-1.709-1.366h-2.108v2.768H570.404z"/>
		<path class="st0" d="M575.291,380.481h3.251c1.932,0,3.133,1.095,3.133,2.756v0.023c0,1.85-1.483,2.815-3.298,2.815h-1.638v2.65
			h-1.448V380.481z M578.424,384.769c1.096,0,1.779-0.613,1.779-1.473v-0.023c0-0.966-0.695-1.472-1.779-1.472h-1.685v2.968H578.424
			z"/>
		<path class="st0" d="M582.604,389.434c1.673-1.119,2.462-2.332,2.462-4.087s-0.789-2.98-2.462-4.087l0.624-0.954
			c2.145,1.178,3.264,2.815,3.264,5.042c0,2.227-1.119,3.864-3.264,5.042L582.604,389.434z"/>
	</g>
</g>
<g>
	<g>
		<path class="st0" d="M222.8,177.717h3.675c1.037,0,1.85,0.307,2.379,0.825c0.436,0.448,0.684,1.06,0.684,1.779v0.023
			c0,1.355-0.813,2.167-1.956,2.498l2.227,3.122h-1.72l-2.026-2.874h-1.814v2.874H222.8V177.717z M226.369,181.805
			c1.037,0,1.696-0.542,1.696-1.378v-0.023c0-0.883-0.636-1.367-1.708-1.367h-2.108v2.769H226.369z"/>
		<path class="st0" d="M231.256,177.717h6.114v1.296h-4.665v2.144h4.135v1.296h-4.135v2.214h4.724v1.296h-6.173V177.717z"/>
		<path class="st0" d="M242.009,177.658h1.343l3.628,8.305h-1.531l-0.836-1.991h-3.899l-0.848,1.991h-1.484L242.009,177.658z
			 M244.082,182.688l-1.425-3.298l-1.414,3.298H244.082z"/>
		<path class="st0" d="M248.333,177.717h1.449v6.927h4.335v1.319h-5.784V177.717z"/>
		<path class="st0" d="M255.163,181.651h3.487v1.402h-3.487V181.651z"/>
		<path class="st0" d="M262.335,179.06h-2.615v-1.343h6.691v1.343h-2.615v6.903h-1.46V179.06z"/>
		<path class="st0" d="M267.964,177.717h1.449v8.246h-1.449V177.717z"/>
		<path class="st0" d="M271.556,177.717h1.543l2.509,3.899l2.509-3.899h1.543v8.246h-1.449v-5.914l-2.604,3.887h-0.047l-2.58-3.863
			v5.89h-1.425V177.717z"/>
		<path class="st0" d="M281.72,177.717h6.114v1.296h-4.665v2.144h4.135v1.296h-4.135v2.214h4.724v1.296h-6.173V177.717z"/>
		<path class="st0" d="M214.703,191.85h6.114v1.295h-4.665v2.144h4.135v1.296h-4.135v2.214h4.724v1.296h-6.173V191.85z"/>
		<path class="st0" d="M222.535,191.85h1.343l4.417,5.701v-5.701h1.426v8.246h-1.213l-4.547-5.866v5.866h-1.425V191.85z"/>
		<path class="st0" d="M231.78,191.85h3.075c2.591,0,4.382,1.778,4.382,4.099v0.023c0,2.321-1.791,4.123-4.382,4.123h-3.075V191.85z
			 M233.229,193.169v5.607h1.625c1.731,0,2.862-1.166,2.862-2.78v-0.024c0-1.614-1.131-2.803-2.862-2.803H233.229z"/>
		<path class="st0" d="M240.53,195.784h3.487v1.402h-3.487V195.784z"/>
		<path class="st0" d="M247.703,193.192h-2.615v-1.343h6.691v1.343h-2.615v6.903h-1.46V193.192z"/>
		<path class="st0" d="M252.883,195.996v-0.024c0-2.32,1.791-4.264,4.323-4.264s4.3,1.92,4.3,4.241v0.023
			c0,2.321-1.791,4.264-4.323,4.264S252.883,198.316,252.883,195.996z M259.987,195.996v-0.024c0-1.602-1.167-2.933-2.804-2.933
			s-2.78,1.308-2.78,2.91v0.023c0,1.602,1.166,2.921,2.803,2.921C258.844,198.894,259.987,197.598,259.987,195.996z"/>
		<path class="st0" d="M262.799,195.784h3.487v1.402h-3.487V195.784z"/>
		<path class="st0" d="M267.946,191.85h6.114v1.295h-4.665v2.144h4.134v1.296h-4.134v2.214h4.724v1.296h-6.173V191.85z"/>
		<path class="st0" d="M275.777,191.85h1.343l4.417,5.701v-5.701h1.425v8.246h-1.213l-4.547-5.866v5.866h-1.425V191.85z"/>
		<path class="st0" d="M285.022,191.85h3.075c2.591,0,4.382,1.778,4.382,4.099v0.023c0,2.321-1.791,4.123-4.382,4.123h-3.075V191.85
			z M286.472,193.169v5.607h1.625c1.731,0,2.862-1.166,2.862-2.78v-0.024c0-1.614-1.131-2.803-2.862-2.803H286.472z"/>
		<path class="st0" d="M222.447,205.981h1.602l2.485,6.338l2.474-6.338h1.567l-3.416,8.305h-1.284L222.447,205.981z"/>
		<path class="st0" d="M232.009,205.981h1.449v8.246h-1.449V205.981z"/>
		<path class="st0" d="M235.047,213.026l0.872-1.037c0.789,0.684,1.59,1.072,2.603,1.072c0.896,0,1.461-0.424,1.461-1.037v-0.024
			c0-0.589-0.33-0.907-1.861-1.26c-1.755-0.424-2.745-0.942-2.745-2.462v-0.023c0-1.414,1.178-2.392,2.815-2.392
			c1.202,0,2.156,0.365,2.992,1.037l-0.777,1.096c-0.742-0.554-1.484-0.848-2.238-0.848c-0.848,0-1.343,0.436-1.343,0.978v0.024
			c0,0.636,0.377,0.918,1.967,1.295c1.744,0.424,2.639,1.048,2.639,2.415v0.023c0,1.543-1.213,2.462-2.945,2.462
			C237.227,214.345,236.037,213.91,235.047,213.026z"/>
		<path class="st0" d="M243.162,205.981h1.449v8.246h-1.449V205.981z"/>
		<path class="st0" d="M246.753,205.981h3.699c0.942,0,1.685,0.259,2.156,0.73c0.365,0.365,0.554,0.813,0.554,1.367v0.023
			c0,0.99-0.565,1.52-1.178,1.837c0.966,0.33,1.637,0.884,1.637,2.003v0.023c0,1.473-1.213,2.262-3.051,2.262h-3.817V205.981z
			 M251.713,208.314c0-0.648-0.519-1.048-1.449-1.048h-2.085v2.191h1.979c0.931,0,1.555-0.365,1.555-1.119V208.314z
			 M250.476,210.682h-2.297v2.262h2.403c0.989,0,1.59-0.389,1.59-1.131v-0.023C252.172,211.094,251.619,210.682,250.476,210.682z"/>
		<path class="st0" d="M255.28,205.981h1.449v8.246h-1.449V205.981z"/>
		<path class="st0" d="M258.871,205.981h1.449v6.927h4.335v1.319h-5.784V205.981z"/>
		<path class="st0" d="M266.185,205.981h1.449v8.246h-1.449V205.981z"/>
		<path class="st0" d="M271.803,207.325h-2.615v-1.343h6.691v1.343h-2.615v6.903h-1.46V207.325z"/>
		<path class="st0" d="M279.776,210.977l-3.275-4.995h1.72l2.297,3.64l2.333-3.64h1.661l-3.275,4.959v3.287h-1.46V210.977z"/>
	</g>
</g>
<g>
	<g>
		<path class="st0" d="M214.798,339.671h3.699c0.942,0,1.684,0.259,2.155,0.73c0.365,0.365,0.554,0.813,0.554,1.367v0.023
			c0,0.99-0.565,1.52-1.178,1.837c0.966,0.33,1.637,0.884,1.637,2.003v0.023c0,1.473-1.213,2.262-3.051,2.262h-3.817V339.671z
			 M219.757,342.003c0-0.648-0.519-1.048-1.449-1.048h-2.085v2.191h1.979c0.931,0,1.555-0.365,1.555-1.119V342.003z
			 M218.521,344.371h-2.297v2.262h2.403c0.989,0,1.59-0.389,1.59-1.131v-0.023C220.217,344.784,219.663,344.371,218.521,344.371z"/>
		<path class="st0" d="M223.242,339.671h6.114v1.296h-4.665v2.144h4.134v1.296h-4.134v2.214h4.724v1.296h-6.173V339.671z"/>
		<path class="st0" d="M233.1,341.014h-2.615v-1.343h6.691v1.343h-2.615v6.903h-1.46V341.014z"/>
		<path class="st0" d="M240.672,341.014h-2.615v-1.343h6.691v1.343h-2.615v6.903h-1.46V341.014z"/>
		<path class="st0" d="M246.219,339.671h6.114v1.296h-4.665v2.144h4.135v1.296h-4.135v2.214h4.724v1.296h-6.173V339.671z"/>
		<path class="st0" d="M254.05,339.671h3.675c1.037,0,1.85,0.307,2.38,0.825c0.436,0.448,0.683,1.06,0.683,1.779v0.023
			c0,1.355-0.813,2.167-1.956,2.498l2.227,3.122h-1.72l-2.026-2.874H255.5v2.874h-1.449V339.671z M257.62,343.759
			c1.037,0,1.696-0.542,1.696-1.378v-0.023c0-0.883-0.636-1.367-1.708-1.367H255.5v2.769H257.62z"/>
		<path class="st0" d="M265.98,339.671h3.675c1.037,0,1.85,0.307,2.38,0.825c0.436,0.448,0.683,1.06,0.683,1.779v0.023
			c0,1.355-0.813,2.167-1.956,2.498l2.227,3.122h-1.72l-2.026-2.874h-1.814v2.874h-1.449V339.671z M269.549,343.759
			c1.037,0,1.696-0.542,1.696-1.378v-0.023c0-0.883-0.636-1.367-1.708-1.367h-2.108v2.769H269.549z"/>
		<path class="st0" d="M274.518,339.671h1.449v8.246h-1.449V339.671z"/>
		<path class="st0" d="M277.556,346.715l0.872-1.037c0.789,0.684,1.59,1.072,2.603,1.072c0.896,0,1.461-0.424,1.461-1.037v-0.024
			c0-0.589-0.33-0.907-1.861-1.26c-1.755-0.424-2.745-0.942-2.745-2.462v-0.023c0-1.414,1.178-2.392,2.815-2.392
			c1.202,0,2.156,0.365,2.992,1.037l-0.777,1.096c-0.742-0.554-1.484-0.848-2.238-0.848c-0.848,0-1.343,0.436-1.343,0.978v0.024
			c0,0.636,0.377,0.918,1.967,1.295c1.744,0.424,2.639,1.048,2.639,2.415v0.023c0,1.543-1.213,2.462-2.945,2.462
			C279.735,348.035,278.546,347.599,277.556,346.715z"/>
		<path class="st0" d="M285.588,339.671h1.449v4.146l3.922-4.146h1.791l-3.439,3.546l3.593,4.7h-1.767l-2.815-3.71l-1.284,1.319
			v2.391h-1.449V339.671z"/>
		<path class="st0" d="M216.459,353.745h1.343l3.628,8.305h-1.531l-0.836-1.991h-3.899l-0.848,1.991h-1.484L216.459,353.745z
			 M218.532,358.774l-1.425-3.298l-1.414,3.298H218.532z"/>
		<path class="st0" d="M222.229,360.848l0.872-1.037c0.789,0.683,1.59,1.072,2.603,1.072c0.896,0,1.461-0.424,1.461-1.037v-0.024
			c0-0.589-0.33-0.907-1.861-1.26c-1.755-0.424-2.745-0.942-2.745-2.462v-0.023c0-1.414,1.178-2.392,2.815-2.392
			c1.201,0,2.156,0.365,2.992,1.037l-0.778,1.096c-0.742-0.554-1.484-0.848-2.238-0.848c-0.849,0-1.343,0.436-1.343,0.978v0.023
			c0,0.636,0.377,0.919,1.967,1.296c1.744,0.424,2.639,1.048,2.639,2.415v0.023c0,1.543-1.213,2.462-2.945,2.462
			C224.408,362.167,223.218,361.731,222.229,360.848z"/>
		<path class="st0" d="M229.707,360.848l0.872-1.037c0.789,0.683,1.59,1.072,2.603,1.072c0.896,0,1.461-0.424,1.461-1.037v-0.024
			c0-0.589-0.33-0.907-1.861-1.26c-1.755-0.424-2.745-0.942-2.745-2.462v-0.023c0-1.414,1.178-2.392,2.815-2.392
			c1.201,0,2.156,0.365,2.992,1.037l-0.778,1.096c-0.742-0.554-1.484-0.848-2.238-0.848c-0.849,0-1.343,0.436-1.343,0.978v0.023
			c0,0.636,0.377,0.919,1.967,1.296c1.744,0.424,2.639,1.048,2.639,2.415v0.023c0,1.543-1.213,2.462-2.945,2.462
			C231.887,362.167,230.697,361.731,229.707,360.848z"/>
		<path class="st0" d="M237.739,353.804h6.114v1.295h-4.665v2.144h4.134v1.296h-4.134v2.214h4.724v1.296h-6.173V353.804z"/>
		<path class="st0" d="M245.017,360.848l0.872-1.037c0.789,0.683,1.59,1.072,2.603,1.072c0.896,0,1.461-0.424,1.461-1.037v-0.024
			c0-0.589-0.33-0.907-1.861-1.26c-1.755-0.424-2.745-0.942-2.745-2.462v-0.023c0-1.414,1.178-2.392,2.815-2.392
			c1.202,0,2.156,0.365,2.992,1.037l-0.777,1.096c-0.742-0.554-1.484-0.848-2.238-0.848c-0.848,0-1.343,0.436-1.343,0.978v0.023
			c0,0.636,0.377,0.919,1.967,1.296c1.744,0.424,2.639,1.048,2.639,2.415v0.023c0,1.543-1.213,2.462-2.945,2.462
			C247.196,362.167,246.007,361.731,245.017,360.848z"/>
		<path class="st0" d="M252.495,360.848l0.872-1.037c0.789,0.683,1.59,1.072,2.603,1.072c0.896,0,1.461-0.424,1.461-1.037v-0.024
			c0-0.589-0.33-0.907-1.861-1.26c-1.755-0.424-2.745-0.942-2.745-2.462v-0.023c0-1.414,1.178-2.392,2.815-2.392
			c1.201,0,2.156,0.365,2.992,1.037l-0.778,1.096c-0.742-0.554-1.484-0.848-2.238-0.848c-0.849,0-1.343,0.436-1.343,0.978v0.023
			c0,0.636,0.377,0.919,1.967,1.296c1.744,0.424,2.639,1.048,2.639,2.415v0.023c0,1.543-1.213,2.462-2.945,2.462
			C254.675,362.167,253.485,361.731,252.495,360.848z"/>
		<path class="st0" d="M260.527,353.804h1.543l2.509,3.899l2.509-3.899h1.543v8.246h-1.449v-5.914l-2.604,3.888h-0.047l-2.58-3.864
			v5.89h-1.425V353.804z"/>
		<path class="st0" d="M270.691,353.804h6.114v1.295h-4.665v2.144h4.134v1.296h-4.134v2.214h4.724v1.296h-6.173V353.804z"/>
		<path class="st0" d="M278.522,353.804h1.343l4.417,5.701v-5.701h1.425v8.246h-1.213l-4.547-5.866v5.866h-1.425V353.804z"/>
		<path class="st0" d="M289.794,355.146h-2.615v-1.343h6.691v1.343h-2.615v6.903h-1.46V355.146z"/>
	</g>
</g>
<g>
	<g>
		<path class="st8" d="M410.34,45.365l-4.633,1.14l-1.215-4.786l7.634-2.279h3.987v26.775h-5.772V45.365z"/>
	</g>
</g>
<g>
	<g>
		<path class="st8" d="M413.624,405.465h-12.989l-0.95-4.14l14.584-16.901h4.938v16.293h3.57v4.748h-3.57v5.734h-5.583V405.465z
			 M413.624,400.717v-8.279l-7.064,8.279H413.624z"/>
	</g>
</g>
<g>
	<g>
		<path class="st8" d="M558.979,162.335l8.849-7.254c3.305-2.734,4.596-4.177,4.596-6.38c0-2.241-1.481-3.456-3.57-3.456
			c-2.051,0-3.456,1.14-5.431,3.57l-4.102-3.304c2.62-3.57,5.165-5.507,9.912-5.507c5.507,0,9.153,3.229,9.153,8.204v0.076
			c0,4.443-2.279,6.646-6.988,10.292l-4.33,3.342h11.584v5.051h-19.673V162.335z"/>
	</g>
</g>
<g>
	<g>
		<path class="st8" d="M558.599,313.024l4.025-3.836c1.823,2.051,3.723,3.19,6.419,3.19c2.202,0,3.76-1.253,3.76-3.229v-0.076
			c0-2.165-1.937-3.38-5.203-3.38h-2.431l-0.911-3.722l6.342-6.381h-10.444v-5.013h17.965v4.406l-6.723,6.418
			c3.608,0.607,7.14,2.506,7.14,7.444v0.076c0,5.014-3.646,8.697-9.57,8.697C564.182,317.62,560.877,315.721,558.599,313.024z"/>
	</g>
</g>
<g>
	<g>
		<path class="st8" d="M246.133,164.576c-1.937-1.937-3.152-4.786-3.152-10.064v-0.076c0-8.204,3.722-14.508,11.66-14.508
			c3.608,0,5.963,1.063,8.317,2.924l-3.076,4.52c-1.747-1.329-3.152-2.127-5.431-2.127c-3.988,0-5.165,3.836-5.355,6.153
			c1.405-0.95,3.076-1.709,5.507-1.709c5.279,0,9.343,2.924,9.343,8.469v0.076c0,5.431-4.367,9.191-10.14,9.191
			C250.349,167.424,247.994,166.437,246.133,164.576z M258.135,158.5v-0.076c0-2.241-1.747-3.874-4.633-3.874
			c-2.887,0-4.558,1.595-4.558,3.835v0.076c0,2.241,1.747,3.95,4.633,3.95C256.464,162.411,258.135,160.778,258.135,158.5z"/>
	</g>
</g>
<g>
	<g>
		<path class="st8" d="M243.171,323.275l3.532-4.215c2.013,1.823,3.988,2.886,6.343,2.886c2.734,0,4.443-1.329,4.443-3.684v-0.076
			c0-2.279-1.937-3.608-4.709-3.608c-1.671,0-3.19,0.456-4.443,0.988l-3.38-2.241l0.76-13.103h16.331v5.127h-11.318l-0.304,4.595
			c1.063-0.266,2.013-0.456,3.494-0.456c5.165,0,9.305,2.506,9.305,8.507v0.076c0,5.621-3.988,9.191-10.103,9.191
			C248.868,327.263,245.754,325.744,243.171,323.275z"/>
	</g>
</g>
</svg>
